<mxfile host="drawio-plugin" modified="2024-03-14T19:45:00.435Z" agent="5.0 (Macintosh; Intel Mac OS X 10_15_7) AppleWebKit/537.36 (KHTML, like Gecko) Chrome/111.0.0.0 Safari/537.36" etag="srIBmEeTE_pRemQibHE6" version="20.5.3" type="embed"><diagram id="23iRSUPoRavnBvh4doch" name="Overview"><mxGraphModel dx="412" dy="604" grid="1" gridSize="10" guides="1" tooltips="1" connect="1" arrows="1" fold="1" page="1" pageScale="1" pageWidth="827" pageHeight="1169" math="0" shadow="0"><root><mxCell id="0"/><mxCell id="1" parent="0"/><mxCell id="2" value="&lt;div style=&quot;&quot;&gt;&lt;span style=&quot;background-color: initial;&quot;&gt;Frontend&lt;/span&gt;&lt;/div&gt;" style="verticalAlign=top;align=center;spacingTop=8;spacingLeft=2;spacingRight=12;shape=cube;size=10;direction=south;fontStyle=4;html=1;" vertex="1" parent="1"><mxGeometry x="40" y="40" width="80" height="40" as="geometry"/></mxCell><mxCell id="3" value="" style="endArrow=block;startArrow=block;endFill=1;startFill=1;html=1;rounded=0;" edge="1" parent="1"><mxGeometry width="160" relative="1" as="geometry"><mxPoint x="120" y="60" as="sourcePoint"/><mxPoint x="230" y="60.5" as="targetPoint"/></mxGeometry></mxCell><mxCell id="18" value="HTTP" style="edgeLabel;html=1;align=center;verticalAlign=middle;resizable=0;points=[];" vertex="1" connectable="0" parent="3"><mxGeometry x="-0.3091" relative="1" as="geometry"><mxPoint x="12" as="offset"/></mxGeometry></mxCell><mxCell id="4" value="&lt;div style=&quot;&quot;&gt;&lt;span style=&quot;background-color: initial;&quot;&gt;APIGATEWAY&lt;/span&gt;&lt;/div&gt;" style="verticalAlign=top;align=center;spacingTop=8;spacingLeft=2;spacingRight=12;shape=cube;size=10;direction=south;fontStyle=4;html=1;" vertex="1" parent="1"><mxGeometry x="230" y="40" width="150" height="40" as="geometry"/></mxCell><mxCell id="5" value="&lt;div style=&quot;&quot;&gt;&lt;span style=&quot;background-color: initial;&quot;&gt;RabbitMQ&lt;/span&gt;&lt;/div&gt;" style="verticalAlign=top;align=center;spacingTop=8;spacingLeft=2;spacingRight=12;shape=cube;size=10;direction=south;fontStyle=4;html=1;" vertex="1" parent="1"><mxGeometry x="194" y="280" width="106" height="40" as="geometry"/></mxCell><mxCell id="8" value="&lt;div style=&quot;&quot;&gt;&lt;span style=&quot;background-color: initial;&quot;&gt;Postgres&lt;/span&gt;&lt;/div&gt;" style="verticalAlign=top;align=center;spacingTop=8;spacingLeft=2;spacingRight=12;shape=cube;size=10;direction=south;fontStyle=4;html=1;" vertex="1" parent="1"><mxGeometry x="334" y="280" width="80" height="40" as="geometry"/></mxCell><mxCell id="9" value="&lt;div style=&quot;&quot;&gt;&lt;span style=&quot;background-color: initial;&quot;&gt;School&lt;/span&gt;&lt;/div&gt;" style="verticalAlign=top;align=center;spacingTop=8;spacingLeft=2;spacingRight=12;shape=cube;size=10;direction=south;fontStyle=4;html=1;" vertex="1" parent="1"><mxGeometry x="280" y="120" width="80" height="40" as="geometry"/></mxCell><mxCell id="10" value="&lt;div style=&quot;&quot;&gt;&lt;span style=&quot;background-color: initial;&quot;&gt;Scheduler&lt;/span&gt;&lt;/div&gt;" style="verticalAlign=top;align=center;spacingTop=8;spacingLeft=2;spacingRight=12;shape=cube;size=10;direction=south;fontStyle=4;html=1;" vertex="1" parent="1"><mxGeometry x="140" y="120" width="100" height="40" as="geometry"/></mxCell><mxCell id="11" value="&lt;div style=&quot;&quot;&gt;&lt;span style=&quot;background-color: initial;&quot;&gt;User&lt;/span&gt;&lt;/div&gt;" style="verticalAlign=top;align=center;spacingTop=8;spacingLeft=2;spacingRight=12;shape=cube;size=10;direction=south;fontStyle=4;html=1;" vertex="1" parent="1"><mxGeometry x="400" y="120" width="80" height="40" as="geometry"/></mxCell><mxCell id="12" value="&lt;div style=&quot;&quot;&gt;&lt;span style=&quot;background-color: initial;&quot;&gt;Eureka&lt;/span&gt;&lt;/div&gt;" style="verticalAlign=top;align=center;spacingTop=8;spacingLeft=2;spacingRight=12;shape=cube;size=10;direction=south;fontStyle=4;html=1;" vertex="1" parent="1"><mxGeometry x="34" y="280" width="110" height="40" as="geometry"/></mxCell><mxCell id="19" value="" style="endArrow=block;startArrow=block;endFill=1;startFill=1;html=1;rounded=0;entryX=0;entryY=0;entryDx=0;entryDy=45;entryPerimeter=0;" edge="1" parent="1" source="4" target="10"><mxGeometry width="160" relative="1" as="geometry"><mxPoint x="230" y="90" as="sourcePoint"/><mxPoint x="440" y="80" as="targetPoint"/></mxGeometry></mxCell><mxCell id="22" value="HTTP" style="edgeLabel;html=1;align=center;verticalAlign=middle;resizable=0;points=[];" vertex="1" connectable="0" parent="19"><mxGeometry x="-0.2096" y="1" relative="1" as="geometry"><mxPoint as="offset"/></mxGeometry></mxCell><mxCell id="20" value="" style="endArrow=block;startArrow=block;endFill=1;startFill=1;html=1;rounded=0;entryX=0;entryY=0;entryDx=0;entryDy=35;entryPerimeter=0;exitX=0;exitY=0;exitDx=40;exitDy=55;exitPerimeter=0;" edge="1" parent="1" source="4" target="9"><mxGeometry width="160" relative="1" as="geometry"><mxPoint x="290" y="90" as="sourcePoint"/><mxPoint x="205" y="130" as="targetPoint"/></mxGeometry></mxCell><mxCell id="23" value="HTTP" style="edgeLabel;html=1;align=center;verticalAlign=middle;resizable=0;points=[];" vertex="1" connectable="0" parent="20"><mxGeometry x="0.35" y="-1" relative="1" as="geometry"><mxPoint y="-7" as="offset"/></mxGeometry></mxCell><mxCell id="21" value="" style="endArrow=block;startArrow=block;endFill=1;startFill=1;html=1;rounded=0;exitX=0;exitY=0;exitDx=40;exitDy=10;exitPerimeter=0;" edge="1" parent="1" source="4" target="11"><mxGeometry width="160" relative="1" as="geometry"><mxPoint x="285" y="90" as="sourcePoint"/><mxPoint x="335" y="130" as="targetPoint"/></mxGeometry></mxCell><mxCell id="24" value="HTTP" style="edgeLabel;html=1;align=center;verticalAlign=middle;resizable=0;points=[];" vertex="1" connectable="0" parent="21"><mxGeometry x="0.0871" y="1" relative="1" as="geometry"><mxPoint as="offset"/></mxGeometry></mxCell><mxCell id="26" value="" style="endArrow=block;startArrow=block;endFill=1;startFill=1;html=1;rounded=0;entryX=1.025;entryY=0.413;entryDx=0;entryDy=0;entryPerimeter=0;exitX=0;exitY=0;exitDx=0;exitDy=48;exitPerimeter=0;" edge="1" parent="1" source="5" target="9"><mxGeometry width="160" relative="1" as="geometry"><mxPoint x="200" y="210" as="sourcePoint"/><mxPoint x="360" y="210" as="targetPoint"/></mxGeometry></mxCell><mxCell id="38" value="AMQP" style="edgeLabel;html=1;align=center;verticalAlign=middle;resizable=0;points=[];" vertex="1" connectable="0" parent="26"><mxGeometry x="-0.183" y="1" relative="1" as="geometry"><mxPoint as="offset"/></mxGeometry></mxCell><mxCell id="27" value="" style="endArrow=block;startArrow=block;endFill=1;startFill=1;html=1;rounded=0;entryX=1.025;entryY=0.413;entryDx=0;entryDy=0;entryPerimeter=0;exitX=0;exitY=0;exitDx=0;exitDy=48;exitPerimeter=0;" edge="1" parent="1" source="5"><mxGeometry width="160" relative="1" as="geometry"><mxPoint x="360" y="279" as="sourcePoint"/><mxPoint x="434.96000000000004" y="160" as="targetPoint"/></mxGeometry></mxCell><mxCell id="39" value="AMQP" style="edgeLabel;html=1;align=center;verticalAlign=middle;resizable=0;points=[];" vertex="1" connectable="0" parent="27"><mxGeometry x="0.2832" y="-5" relative="1" as="geometry"><mxPoint as="offset"/></mxGeometry></mxCell><mxCell id="28" value="" style="endArrow=block;startArrow=block;endFill=1;startFill=1;html=1;rounded=0;entryX=1.025;entryY=0.413;entryDx=0;entryDy=0;entryPerimeter=0;" edge="1" parent="1" source="5"><mxGeometry width="160" relative="1" as="geometry"><mxPoint x="11.039999999999992" y="280" as="sourcePoint"/><mxPoint x="194.00000000000003" y="160" as="targetPoint"/></mxGeometry></mxCell><mxCell id="40" value="AMQP" style="edgeLabel;html=1;align=center;verticalAlign=middle;resizable=0;points=[];" vertex="1" connectable="0" parent="28"><mxGeometry x="0.0914" y="-1" relative="1" as="geometry"><mxPoint y="-14" as="offset"/></mxGeometry></mxCell><mxCell id="29" value="" style="endArrow=block;startArrow=block;endFill=1;startFill=1;html=1;rounded=0;dashed=1;exitX=0;exitY=0;exitDx=40;exitDy=45;exitPerimeter=0;" edge="1" parent="1" source="11"><mxGeometry width="160" relative="1" as="geometry"><mxPoint x="200" y="280" as="sourcePoint"/><mxPoint x="360" y="280" as="targetPoint"/></mxGeometry></mxCell><mxCell id="30" value="" style="endArrow=block;startArrow=block;endFill=1;startFill=1;html=1;rounded=0;dashed=1;exitX=0;exitY=0;exitDx=40;exitDy=45;exitPerimeter=0;entryX=0;entryY=0;entryDx=0;entryDy=70;entryPerimeter=0;" edge="1" parent="1" source="9" target="8"><mxGeometry width="160" relative="1" as="geometry"><mxPoint x="250" y="160" as="sourcePoint"/><mxPoint x="370" y="290" as="targetPoint"/></mxGeometry></mxCell><mxCell id="35" value="" style="endArrow=block;startArrow=block;endFill=1;startFill=1;html=1;rounded=0;dashed=1;dashPattern=1 1;entryX=0;entryY=0;entryDx=40;entryDy=55;entryPerimeter=0;" edge="1" parent="1" target="10"><mxGeometry width="160" relative="1" as="geometry"><mxPoint x="90" y="279" as="sourcePoint"/><mxPoint x="250" y="279" as="targetPoint"/></mxGeometry></mxCell><mxCell id="36" value="" style="endArrow=block;startArrow=block;endFill=1;startFill=1;html=1;rounded=0;dashed=1;dashPattern=1 1;entryX=0;entryY=0;entryDx=40;entryDy=55;entryPerimeter=0;" edge="1" parent="1" source="12"><mxGeometry width="160" relative="1" as="geometry"><mxPoint x="220" y="279" as="sourcePoint"/><mxPoint x="315" y="160" as="targetPoint"/></mxGeometry></mxCell><mxCell id="37" value="" style="endArrow=block;startArrow=block;endFill=1;startFill=1;html=1;rounded=0;dashed=1;dashPattern=1 1;entryX=0;entryY=0;entryDx=25;entryDy=80;entryPerimeter=0;exitX=0;exitY=0;exitDx=0;exitDy=0;exitPerimeter=0;" edge="1" parent="1" source="12" target="11"><mxGeometry width="160" relative="1" as="geometry"><mxPoint x="131.28571428571433" y="290" as="sourcePoint"/><mxPoint x="325" y="170" as="targetPoint"/></mxGeometry></mxCell><mxCell id="41" value="Current &lt;br&gt;Overview" style="shape=note;whiteSpace=wrap;html=1;backgroundOutline=1;darkOpacity=0.05;" vertex="1" parent="1"><mxGeometry x="610" y="10" width="130" height="50" as="geometry"/></mxCell><mxCell id="7ifhbDaRYNIqcuHqQfn8-41" value="Text" style="text;html=1;resizable=0;autosize=1;align=center;verticalAlign=middle;points=[];fillColor=none;strokeColor=none;rounded=0;" vertex="1" parent="1"><mxGeometry x="195" y="285" width="50" height="30" as="geometry"/></mxCell></root></mxGraphModel></diagram></mxfile>